# File created by Blade
# Date/Time:  Mon Nov 18 17:26:10 2013
# Frame Rate: 100.000 fps
#------------------------------------------------------
:FULLY-SPECIFIED
:DEGREES
141
root -38.672342 -2.942224 38.539645 9.855748 -5.237993 20.336709
Spine 22.152371 -4.375157 2.466959
Spine1 8.249878 -1.497694 4.649304
Spine2 -22.010225 -0.493179 -0.108060
NeckDummy -0.052863 0.176036 0.875986 13.902515 -0.708104 0.141042
Neck 4.116515 -13.688436 41.699276
Head -0.309850 -0.038279 0.382078 -6.378697 -3.947202 -1.670059
LeftShoulderDummy -0.089869 0.197703 0.894558 13.884009 -0.840693 0.277250
LeftShoulder 3.883104 -6.707404 14.561582
LeftArm 18.737012 33.026835 21.599938
LeftForeArm 51.669602
LeftForeArmRoll 19.623012
LeftHand -33.135380 -21.592994 10.270112
LeftHandThumb1 13.026080 4.844386
LeftHandIndex1 0.199822 43.941809
LeftHandPinky1 2.583838 64.561622
RightShoulderDummy -0.042019 0.194360 0.844792 13.858592 0.689952 -0.055847
RightShoulder 9.261612 4.107280 9.626337
RightArm 1.512353 67.911439 30.933906
RightForeArm 101.497908
RightForeArmRoll 29.689606
RightHand -45.129946 -20.509731 4.762875
RightHandThumb1 15.970171 9.195980
RightHandIndex1 4.700187 32.665765
RightHandPinky1 11.086405 67.483894
LeftUpLeg -11.794615 24.170042 -46.024836
LeftLeg 42.758606
LeftFoot 0.028628 -0.634581 -1.384069 -24.673925 19.495296 -1.914282
LeftToeBase -0.418886
RightUpLeg -1.244465 16.566194 -30.010781
RightLeg 47.326878
RightFoot -0.521355 0.907686 0.764250 -20.302703 9.335879 -21.161998
RightToeBase -1.402190
142
root -38.809631 -2.965115 38.581670 9.638745 -5.128403 20.202498
Spine 22.179221 -4.306202 2.450091
Spine1 8.272231 -1.476903 4.650723
Spine2 -21.997731 -0.583278 -0.148123
NeckDummy -0.056615 0.172609 0.873097 13.920729 -0.683735 0.044848
Neck 4.075886 -13.619710 41.832765
Head -0.312191 -0.035417 0.376343 -6.337203 -4.008415 -1.649759
LeftShoulderDummy -0.093997 0.192351 0.891548 13.902998 -0.819651 0.190681
LeftShoulder 4.063724 -6.779625 14.827052
LeftArm 18.818492 33.268344 21.323574
LeftForeArm 52.246299
LeftForeArmRoll 19.300805
LeftHand -32.899378 -21.522289 9.930286
LeftHandThumb1 13.150439 4.770279
LeftHandIndex1 -0.011334 43.771731
LeftHandPinky1 2.364952 64.309420
RightShoulderDummy -0.046349 0.192496 0.842351 13.877755 0.667371 0.037903
RightShoulder 9.274547 4.030389 9.578863
RightArm 1.273564 67.818568 30.786370
RightForeArm 101.471924
RightForeArmRoll 29.243751
RightHand -45.107692 -20.651651 4.865095
RightHandThumb1 16.160101 9.231621
RightHandIndex1 4.967026 33.348752
RightHandPinky1 11.334826 68.437244
LeftUpLeg -11.924228 24.278758 -45.654759
LeftLeg 42.553228
LeftFoot 0.030472 -0.638230 -1.376986 -24.880290 19.694616 -1.710113
LeftToeBase -0.471517
RightUpLeg -1.115107 16.540593 -29.896033
RightLeg 47.462491
RightFoot -0.536230 0.877980 0.717748 -20.342532 9.507022 -21.488504
RightToeBase -1.370248
143
root -38.948463 -2.987586 38.619369 9.447151 -5.011317 20.083097
Spine 22.179797 -4.209042 2.428212
Spine1 8.280557 -1.446683 4.631475
Spine2 -21.919598 -0.692357 -0.185208
NeckDummy -0.061807 0.169731 0.866856 13.934599 -0.666886 0.020057
Neck 4.092757 -13.658627 41.993254
Head -0.316256 -0.030522 0.369575 -6.268082 -4.045077 -1.689608
LeftShoulderDummy -0.099934 0.188577 0.885501 13.919176 -0.807361 0.171661
LeftShoulder 4.245478 -6.935853 15.055045
LeftArm 18.934822 33.520739 21.038158
LeftForeArm 52.750679
LeftForeArmRoll 19.168316
LeftHand -32.823959 -21.420072 9.798000
LeftHandThumb1 13.373639 4.769980
LeftHandIndex1 -0.111488 43.872348
LeftHandPinky1 2.008992 64.559661
RightShoulderDummy -0.051968 0.189448 0.836470 13.892942 0.652603 0.056096
RightShoulder 9.262156 4.049579 9.556554
RightArm 1.214032 67.757556 30.802406
RightForeArm 101.469158
RightForeArmRoll 29.150622
RightHand -45.147114 -20.801567 4.913031
RightHandThumb1 16.724763 9.068010
RightHandIndex1 5.115633 34.070611
RightHandPinky1 11.471430 68.826335
LeftUpLeg -12.072082 24.371518 -45.293799
LeftLeg 42.300918
LeftFoot 0.026516 -0.636530 -1.369277 -25.093942 19.926093 -1.460788
LeftToeBase -0.494084
RightUpLeg -0.922737 16.561362 -29.887917
RightLeg 47.704766
RightFoot -0.529968 0.875776 0.780611 -20.352197 8.938105 -21.782988
RightToeBase -1.260504
144
root -39.083308 -3.011976 38.650511 9.287837 -4.890801 19.986838
Spine 22.187835 -4.098399 2.400716
Spine1 8.285565 -1.418093 4.618627
Spine2 -21.906338 -0.757759 -0.164173
NeckDummy -0.064197 0.168328 0.863044 13.984185 -0.697177 0.086585
Neck 4.212791 -13.808361 42.141457
Head -0.327415 -0.025413 0.362986 -6.202850 -4.155828 -1.722458
LeftShoulderDummy -0.103431 0.188208 0.882684 13.969679 -0.839850 0.244894
LeftShoulder 4.476051 -7.233222 15.213528
LeftArm 19.096719 33.871334 20.728506
LeftForeArm 53.290945
LeftForeArmRoll 18.891510
LeftHand -32.915729 -21.360360 9.665496
LeftHandThumb1 13.188353 4.915624
LeftHandIndex1 -0.146152 43.812387
LeftHandPinky1 2.326087 64.420576
RightShoulderDummy -0.054924 0.186375 0.832081 13.943334 0.683813 -0.010090
RightShoulder 9.190831 4.224320 9.599393
RightArm 1.042795 67.702129 30.759496
RightForeArm 101.435974
RightForeArmRoll 28.914265
RightHand -45.172042 -20.990102 5.095315
RightHandThumb1 16.684112 8.843773
RightHandIndex1 5.289680 34.675930
RightHandPinky1 11.652432 69.030174
LeftUpLeg -12.315085 24.400752 -45.033222
LeftLeg 42.154940
LeftFoot 0.025365 -0.644441 -1.358715 -25.323580 20.212431 -1.234852
LeftToeBase -0.488096
RightUpLeg -0.687824 16.628387 -29.987332
RightLeg 48.034092
RightFoot -0.533841 0.847181 0.757849 -20.376868 8.903867 -21.860134
RightToeBase -1.315148
145
root -39.224738 -3.033172 38.681857 9.107410 -4.788589 19.843216
Spine 22.227614 -3.957398 2.348061
Spine1 8.297892 -1.379343 4.566192
Spine2 -21.864255 -0.928230 -0.144932
NeckDummy -0.071007 0.167980 0.860050 14.000978 -0.738003 0.159221
Neck 4.278508 -13.970528 42.288533
Head -0.331057 -0.025071 0.356608 -6.132690 -4.228299 -1.704569
LeftShoulderDummy -0.110336 0.189225 0.880735 13.986189 -0.881842 0.318682
LeftShoulder 4.710859 -7.452083 15.499938
LeftArm 19.162759 34.275251 20.423478
LeftForeArm 53.896030
LeftForeArmRoll 19.017670
LeftHand -33.128488 -21.339469 9.481015
LeftHandThumb1 13.558383 4.392682
LeftHandIndex1 -0.123863 43.504588
LeftHandPinky1 2.217231 64.202377
RightShoulderDummy -0.061780 0.184446 0.827974 13.960256 0.725298 -0.083520
RightShoulder 9.167103 4.336436 9.594624
RightArm 1.042027 67.626076 30.946760
RightForeArm 101.340771
RightForeArmRoll 28.381659
RightHand -45.186735 -21.203864 5.322663
RightHandThumb1 16.711798 9.228332
RightHandIndex1 5.408407 35.278956
RightHandPinky1 12.140715 69.730679
LeftUpLeg -12.411002 24.521213 -44.697233
LeftLeg 41.916149
LeftFoot 0.031518 -0.647033 -1.349657 -25.511763 20.383259 -0.990717
LeftToeBase -0.511907
RightUpLeg -0.610290 16.601043 -30.133142
RightLeg 48.439155
RightFoot -0.540704 0.865384 0.821354 -20.413417 8.256479 -22.133580
RightToeBase -1.153105
